<?xml version="1.0" encoding="UTF-8"?>
<svg width="24px" height="24px" viewBox="0 0 24 24" version="1.1" xmlns="http://www.w3.org/2000/svg" xmlns:xlink="http://www.w3.org/1999/xlink">
    <title>93482B47-73B3-464F-911C-9F69070D1F1C</title>
    <g id="Wireframes" stroke="none" stroke-width="1" fill="none" fill-rule="evenodd">
        <g id="Settings-Collapsed---Companies-Users---User-Details" transform="translate(-337.000000, -795.000000)" fill-rule="nonzero">
            <g id="Body" transform="translate(100.000000, 179.000000)">
                <g id="Tags" transform="translate(117.000000, 611.000000)">
                    <g id="Close" transform="translate(120.000000, 5.000000)">
                        <path d="M20.4853618,3.5147929 C18.2188189,1.24832734 15.2053216,0 12.0000773,0 C8.79483312,0 5.78125846,1.24832734 3.51471555,3.5147929 C1.24824999,5.78125846 0,8.79475577 0,12.0000773 C0,15.2053216 1.24824999,18.2188189 3.51471555,20.4852844 C5.78125846,22.7518274 8.79467842,24 12,24 C15.2053216,24 18.2187415,22.75175 20.4852844,20.4852844 C22.75175,18.2188189 24,15.2053216 24,12.0000773 C24,8.79475577 22.7518274,5.78125846 20.4853618,3.5147929 Z" id="Shape" fill="#0F71CF"></path>
                        <path d="M14.6731639,12.2199018 L17.6641528,15.2108907 C17.9054801,15.4521406 17.9054801,15.8446842 17.6641528,16.0859342 L15.9367289,17.8133581 C15.8201648,17.9299223 15.6647716,17.9941215 15.4991685,17.9941215 C15.3335654,17.9941215 15.1781723,17.9299223 15.0616081,17.8133581 L12.0706192,14.8223692 C12.0127625,14.7646672 11.9097343,14.7646672 11.8518003,14.8223692 L8.86081139,17.8133581 C8.74424721,17.9299223 8.58885408,17.9941215 8.42325096,17.9941215 C8.25764783,17.9941215 8.10233206,17.9299223 7.98569053,17.8134354 L6.25826662,16.0859342 C6.14170244,15.96937 6.07750319,15.8139769 6.07750319,15.6484511 C6.07750319,15.4827706 6.14170244,15.3274548 6.25826662,15.2108907 L9.24925552,12.2199018 C9.30850447,12.1605755 9.30850447,12.0603318 9.24917817,12.0010829 L6.13187918,8.88378389 C6.015315,8.76721971 5.95111575,8.61182658 5.95111575,8.44622346 C5.95111575,8.28062033 6.015315,8.12530456 6.13187918,8.00874038 L7.85930309,6.28131647 C7.97586727,6.16475229 8.13126039,6.10055304 8.29686352,6.10055304 C8.46246664,6.10055304 8.61778242,6.16475229 8.7343466,6.28131647 L11.8517229,9.39869281 C11.909657,9.45647214 12.0126852,9.45639479 12.0704645,9.39869281 L15.1878408,6.28131647 C15.304405,6.16475229 15.4597981,6.10055304 15.6254012,6.10055304 C15.7910044,6.10055304 15.9463201,6.16475229 16.0628843,6.28131647 L17.7903082,8.00874038 C17.9068724,8.12530456 17.9710717,8.28069768 17.9710717,8.44622346 C17.9710717,8.61190393 17.9068724,8.76721971 17.7903082,8.88386124 L14.6730092,12.0010829 C14.613915,12.0604092 14.613915,12.1606528 14.6731639,12.2199018 Z" id="Path" fill="#FFFFFF"></path>
                    </g>
                </g>
            </g>
        </g>
    </g>
</svg>