<?xml version="1.0" encoding="UTF-8"?>
<svg width="18px" height="18px" viewBox="0 0 18 18" version="1.1" xmlns="http://www.w3.org/2000/svg" xmlns:xlink="http://www.w3.org/1999/xlink">
    <title>B0623F95-8383-441A-B53C-AB75625C7C1B</title>
    <g id="Wireframes" stroke="none" stroke-width="1" fill="none" fill-rule="evenodd">
        <g id="Settings-Collapsed---Travelers-(List)---Filters-Menu-Open---Additional-Filters" transform="translate(-717.000000, -334.000000)" fill="#595B60" fill-rule="nonzero">
            <g id="Body" transform="translate(99.000000, 177.000000)">
                <g id="Layers-Menu" transform="translate(430.000000, 148.000000)">
                    <g id="Close" transform="translate(188.000000, 9.000000)">
                        <path d="M15.3640213,2.63609467 C13.6641142,0.936245504 11.4039912,0 9.00005801,0 C6.59612484,0 4.33594384,0.936245504 2.63603666,2.63609467 C0.936187493,4.33594384 0,6.59606683 0,9.00005801 C0,11.4039912 0.936187493,13.6641142 2.63603666,15.3639633 C4.33594384,17.0638705 6.59600882,18 9,18 C11.4039912,18 13.6640562,17.0638125 15.3639633,15.3639633 C17.0638125,13.6641142 18,11.4039912 18,9.00005801 C18,6.59606683 17.0638705,4.33594384 15.3640213,2.63609467 Z M11.004873,9.16492633 L13.2481146,11.408168 C13.4291101,11.5891055 13.4291101,11.8835132 13.2481146,12.0644506 L11.9525467,13.3600186 C11.8651236,13.4474417 11.7485787,13.4955911 11.6243764,13.4955911 C11.500174,13.4955911 11.3836292,13.4474417 11.2962061,13.3600186 L9.05296438,11.1167769 C9.00957188,11.0735004 8.93230073,11.0735004 8.88885021,11.1167769 L6.64560854,13.3600186 C6.5581854,13.4474417 6.44164056,13.4955911 6.31743822,13.4955911 C6.19323587,13.4955911 6.07674904,13.4474417 5.9892679,13.3600766 L4.69369997,12.0644506 C4.60627683,11.9770275 4.55812739,11.8604827 4.55812739,11.7363383 C4.55812739,11.612078 4.60627683,11.4955911 4.69369997,11.408168 L6.93694164,9.16492633 C6.98137835,9.1204316 6.98137835,9.04524887 6.93688363,9.00081216 L4.59890939,6.66283792 C4.51148625,6.57541478 4.46333681,6.45886994 4.46333681,6.33466759 C4.46333681,6.21046525 4.51148625,6.09397842 4.59890939,6.00655528 L5.89447732,4.71098735 C5.98190045,4.62356422 6.0984453,4.57541478 6.22264764,4.57541478 C6.34684998,4.57541478 6.46333681,4.62356422 6.55075995,4.71098735 L8.8887922,7.04901961 C8.93224272,7.0923541 9.00951386,7.09229609 9.05284836,7.04901961 L11.3908806,4.71098735 C11.4783037,4.62356422 11.5948486,4.57541478 11.7190509,4.57541478 C11.8432533,4.57541478 11.9597401,4.62356422 12.0471632,4.71098735 L13.3427312,6.00655528 C13.4301543,6.09397842 13.4783037,6.21052326 13.4783037,6.33466759 C13.4783037,6.45892795 13.4301543,6.57541478 13.3427312,6.66289593 L11.0047569,9.00081216 C10.9604362,9.04530688 10.9604362,9.12048962 11.004873,9.16492633 Z" id="Shape"></path>
                    </g>
                </g>
            </g>
        </g>
    </g>
</svg>