<?xml version="1.0" encoding="UTF-8"?>
<svg width="38px" height="49px" viewBox="0 0 38 49" version="1.1" xmlns="http://www.w3.org/2000/svg" xmlns:xlink="http://www.w3.org/1999/xlink">
    <title>CSV Document Error</title>
    <g id="Wireframes" stroke="none" stroke-width="1" fill="none" fill-rule="evenodd">
        <g id="Settings-Collapsed---Import-Travelers---File-Error" transform="translate(-186.000000, -448.000000)" fill-rule="nonzero">
            <g id="Body" transform="translate(100.000000, 179.000000)">
                <g id="Upload-Status-Bar" transform="translate(69.000000, 256.000000)">
                    <g id="CSV-Document-Error" transform="translate(17.000000, 13.000000)">
                        <g id="Group" fill="#E9BEBC">
                            <path d="M37.3968254,12.9199219 L27.3284493,10.0488281 L24.4517705,0 L2.87667888,0 C1.28788913,0 0,1.28538867 0,2.87109375 L0,46.1289062 C0,47.7146113 1.28788913,49 2.87667888,49 L34.5201465,49 C36.1089363,49 37.3968254,47.7146113 37.3968254,46.1289062 L37.3968254,12.9199219 Z" id="Path"></path>
                            <g id="Right" transform="translate(18.890191, 0.000000)">
                                <path d="M18.5066341,12.9199219 L18.5066341,46.1289062 C18.5066341,47.7146113 17.218745,49 15.6299552,49 L0.0384516077,49 L0.0384516077,0 L5.56157916,0 L8.43825804,10.0488281 L18.5066341,12.9199219 Z" id="Path"></path>
                            </g>
                        </g>
                        <g id="X" transform="translate(10.000000, 18.000000)" fill="#E35349">
                            <path d="M17.5416667,10.2432726 L0.458333333,10.2432726 C-0.345833333,10.2432726 -1,9.60678033 -1,8.82434082 L-1,8.41893175 C-1,7.63649224 -0.345833333,7 0.458333333,7 L17.5416667,7 C18.3458333,7 19,7.63649224 19,8.41893175 L19,8.82434082 C19,9.60678033 18.3458333,10.2432726 17.5416667,10.2432726 Z" id="Path" transform="translate(9.000000, 8.621636) rotate(45.000000) translate(-9.000000, -8.621636) "></path>
                            <path d="M17.5416667,10.2432726 L0.458333333,10.2432726 C-0.345833333,10.2432726 -1,9.60678033 -1,8.82434082 L-1,8.41893175 C-1,7.63649224 -0.345833333,7 0.458333333,7 L17.5416667,7 C18.3458333,7 19,7.63649224 19,8.41893175 L19,8.82434082 C19,9.60678033 18.3458333,10.2432726 17.5416667,10.2432726 Z" id="Path" transform="translate(9.000000, 8.621636) scale(1, -1) rotate(45.000000) translate(-9.000000, -8.621636) "></path>
                        </g>
                        <path d="M38,13 L27.8888889,13 C26.3,13 25,11.7 25,10.1111111 L25,0 C25.3755556,0 25.7511111,0.144444444 26.0110148,0.43342963 L37.5665704,11.9889852 C37.8555556,12.2488889 38,12.6244444 38,13 Z" id="Corner" fill="#E35349"></path>
                    </g>
                </g>
            </g>
        </g>
    </g>
</svg>