<?xml version="1.0" encoding="UTF-8"?>
<svg width="38px" height="27px" viewBox="0 0 38 27" version="1.1" xmlns="http://www.w3.org/2000/svg" xmlns:xlink="http://www.w3.org/1999/xlink">
    <title>107B57D7-E8A6-4723-A201-6550C235C9B0</title>
    <defs>
        <rect id="path-1" x="0" y="0" width="1600" height="843" rx="14"></rect>
        <filter x="-5.0%" y="-5.8%" width="110.0%" height="119.0%" filterUnits="objectBoundingBox" id="filter-3">
            <feOffset dx="0" dy="31" in="SourceAlpha" result="shadowOffsetOuter1"></feOffset>
            <feGaussianBlur stdDeviation="21.5" in="shadowOffsetOuter1" result="shadowBlurOuter1"></feGaussianBlur>
            <feColorMatrix values="0 0 0 0 0.0862745098   0 0 0 0 0.278431373   0 0 0 0 0.568627451  0 0 0 0.16 0" type="matrix" in="shadowBlurOuter1"></feColorMatrix>
        </filter>
    </defs>
    <g id="Wireframes" stroke="none" stroke-width="1" fill="none" fill-rule="evenodd">
        <g id="Flight-Board---Export" transform="translate(-1491.000000, -204.000000)">
            <g id="Body" transform="translate(99.000000, 177.000000)">
                <mask id="mask-2" fill="white">
                    <use xlink:href="#path-1"></use>
                </mask>
                <g id="Mask">
                    <use fill="black" fill-opacity="1" filter="url(#filter-3)" xlink:href="#path-1"></use>
                    <use fill="#F0F3F8" fill-rule="evenodd" xlink:href="#path-1"></use>
                </g>
            </g>
            <g id="Filters" transform="translate(1491.000000, 204.000000)">
                <rect id="Rectangle" fill="#066BC1" x="0" y="0" width="38" height="27" rx="4"></rect>
                <g id="Leaf" transform="translate(7.000000, 2.000000)">
                    <rect id="Rectangle" x="0" y="0" width="24" height="24"></rect>
                    <path d="M6.05,8.05 C3.32,10.78 3.32,15.2 6.03,17.93 C7.49999311,14.53 10.12,11.69 13.39,10 C10.62,12.34 8.68,15.61 7.99999311,19.32 C10.6,20.55 13.8,20.1 15.95,17.95 C19.43,14.47 19.9999931,4 19.9999931,4 C19.9999931,4 9.53,4.57 6.05,8.05 Z" id="Path" fill="#FFFFFF" fill-rule="nonzero"></path>
                </g>
            </g>
        </g>
    </g>
</svg>