<?xml version="1.0" encoding="UTF-8"?>
<svg width="69px" height="80px" viewBox="0 0 69 80" version="1.1" xmlns="http://www.w3.org/2000/svg" xmlns:xlink="http://www.w3.org/1999/xlink">
    <title>04C38AD8-B39C-4D2B-A9CE-5E7C0B41F6FC</title>
    <defs>
        <path d="M40,0 L56.8619288,0 C62.0165865,0 66.6666667,4.65008019 66.6666667,9.80473785 L66.6666667,26.6666667 L40,0 Z" id="path-1"></path>
        <filter x="-15.0%" y="-22.5%" width="130.0%" height="130.0%" filterUnits="objectBoundingBox" id="filter-2">
            <feOffset dx="0" dy="-2" in="SourceAlpha" result="shadowOffsetOuter1"></feOffset>
            <feGaussianBlur stdDeviation="1" in="shadowOffsetOuter1" result="shadowBlurOuter1"></feGaussianBlur>
            <feComposite in="shadowBlurOuter1" in2="SourceAlpha" operator="out" result="shadowBlurOuter1"></feComposite>
            <feColorMatrix values="0 0 0 0 0   0 0 0 0 0   0 0 0 0 0  0 0 0 0.0909637238 0" type="matrix" in="shadowBlurOuter1"></feColorMatrix>
        </filter>
    </defs>
    <g id="Wireframes" stroke="none" stroke-width="1" fill="none" fill-rule="evenodd">
        <g id="Flight-Board---Export" transform="translate(-1537.000000, -306.000000)">
            <g id="Export-Menu" transform="translate(1353.000000, 244.000000)">
                <g id="Export-Formats" transform="translate(48.000000, 62.000000)">
                    <g id="PDF" transform="translate(136.000000, 0.000000)">
                        <path d="M40,0 L66.6666667,26.6666667 L66.6666667,70.6666667 C66.6666667,75.8213243 62.487991,80 57.3333333,80 L9.33333333,80 C4.17867567,80 0,75.8213243 0,70.6666667 L0,9.33333333 C0,4.17867567 4.17867567,0 9.33333333,0 L40,0 Z" id="Combined-Shape" fill="#E94848"></path>
                        <path d="M31.0888889,29.3333333 C29.3410774,29.3333333 27.9037037,30.7707087 27.9037037,32.5185185 C27.9037037,34.6912894 29.1109379,37.3887049 30.3821759,39.9240741 C29.3884982,43.0346804 28.260898,46.3681407 26.81875,49.1810185 C23.8670402,50.339192 21.2347028,51.2000291 19.6520833,52.4756944 C19.6274053,52.5009306 19.6041443,52.5275145 19.5824074,52.5553241 C19.0040773,53.1467493 18.6666667,53.95198 18.6666667,54.8148148 C18.6666667,56.5626215 20.1040409,58 21.8518519,58 C22.7041587,58 23.5268117,57.6819433 24.1212963,57.0743056 C24.1418705,57.058533 24.1617944,57.0419297 24.1810185,57.024537 C25.3459857,55.6334641 26.7196213,53.1100193 27.9435185,50.8034722 C30.7642335,49.6938751 33.7206173,48.5648202 36.5733796,47.887037 C38.6559524,49.5653942 41.6687592,50.6740741 44.1481481,50.6740741 C45.895958,50.6740741 47.3333333,49.2366956 47.3333333,47.4888889 C47.3333333,45.7410822 45.895958,44.3037037 44.1481481,44.3037037 C42.159818,44.3037037 39.2703763,45.0134725 37.0611111,45.7569444 C35.2703659,44.0758343 33.6251092,41.97625 32.4425926,39.7449074 C33.2874878,37.1421387 34.2740741,34.5378332 34.2740741,32.5185185 C34.2740741,30.7707087 32.8367007,29.3333333 31.0888889,29.3333333 Z M31.0888889,31.2444444 C31.8038585,31.2444444 32.362963,31.8035496 32.362963,32.5185185 C32.362963,33.4745296 31.8510295,35.2346884 31.2581019,37.1270833 C30.4658138,35.2861355 29.8148148,33.5198993 29.8148148,32.5185185 C29.8148148,31.8035496 30.3739196,31.2444444 31.0888889,31.2444444 Z M31.6363426,42.14375 C32.5943386,43.6675904 33.7163424,45.0855552 34.9409722,46.344213 C33.0520711,46.8607226 31.2073061,47.5225404 29.3868056,48.2155093 C30.2660829,46.2309478 30.9699897,44.1716141 31.6363426,42.14375 Z M44.1481481,46.2148148 C44.863119,46.2148148 45.4222222,46.7739104 45.4222222,47.4888889 C45.4222222,48.2038674 44.863119,48.762963 44.1481481,48.762963 C42.7127957,48.762963 40.6727515,48.1150326 39.0418981,47.2101852 C40.9138525,46.6808711 42.9564716,46.2148148 44.1481481,46.2148148 Z M25.1365741,51.918287 C24.2408631,53.5171226 23.3505232,55.0094456 22.7277778,55.7604167 C22.5150472,55.9638226 22.2320617,56.0888889 21.8518519,56.0888889 C21.1368819,56.0888889 20.5777778,55.5297615 20.5777778,54.8148148 C20.5777778,54.4783637 20.7207751,54.14419 20.9162037,53.9289352 C21.6634055,53.3506967 23.2889787,52.6577596 25.1365741,51.918287 Z" id="acrobat-shape" fill="#FFFFFF" fill-rule="nonzero"></path>
                        <g id="Path" transform="translate(53.333333, 13.333333) scale(-1, -1) translate(-53.333333, -13.333333) ">
                            <use fill="black" fill-opacity="1" filter="url(#filter-2)" xlink:href="#path-1"></use>
                            <use fill-opacity="0.4" fill="#FFFFFF" fill-rule="evenodd" xlink:href="#path-1"></use>
                        </g>
                    </g>
                </g>
            </g>
        </g>
    </g>
</svg>