<?xml version="1.0" encoding="UTF-8"?>
<svg width="14px" height="16px" viewBox="0 0 14 16" version="1.1" xmlns="http://www.w3.org/2000/svg" xmlns:xlink="http://www.w3.org/1999/xlink">
    <title>Traveler</title>
    <g id="Symbols" stroke="none" stroke-width="1" fill="none" fill-rule="evenodd">
        <g id="Sidebar-Menu-Collapsed-Settings-Companies" transform="translate(-27.000000, -581.000000)" fill="#FFFFFF" fill-rule="nonzero">
            <g id="Sidebar-items" transform="translate(0.000000, 27.000000)">
                <g id="Submenu" transform="translate(26.000000, 475.000000)">
                    <g id="Traveler" transform="translate(1.000000, 79.000000)">
                        <ellipse id="Oval" cx="8.81142599" cy="1.7704918" rx="1.7622852" ry="1.7704918"></ellipse>
                        <path d="M13.3416926,6.16615156 C11.7378579,6.00123363 10.1828565,4.26618442 9.79151084,4.02590406 C9.55138677,3.85261253 9.26744208,3.73913243 8.99581891,3.69677946 C8.99581891,3.69677946 8.80274946,3.65672196 8.60321202,3.67873904 C8.41224466,3.69994785 8.12186433,3.70980866 7.69669112,4.02664767 C7.66590349,4.04578733 7.44870844,4.23482383 7.38021245,4.31720197 C6.85103398,4.86555977 5.38467635,6.48716121 4.65476386,8.32156207 C4.55159945,8.58214599 4.61705549,8.86519962 4.79673621,9.05611128 L3.93953371,10.5830813 L2.73199263,9.90491652 C2.58785351,9.8238316 2.40490646,9.87446118 2.32392725,10.0187522 L0.03836655,14.0561865 C-0.0425479841,14.2003159 0.00864614357,14.3840178 0.153141003,14.4642622 L1.06729413,14.978188 C0.921764396,15.2371554 0.956788553,15.5721641 1.17663548,15.7948567 C1.44172598,16.0653661 1.87724797,16.0686638 2.14738351,15.8028747 C2.39847081,15.5552553 2.41897434,15.1620839 2.20620986,14.8909926 L3.45420821,12.7020877 L4.32851853,11.1445976 L5.41222998,9.26648592 C5.64656519,9.22920884 5.85658077,9.07305247 5.95094872,8.83616682 C6.25985985,8.0585857 6.73823226,7.3094231 7.20020833,6.68861262 L7.41792082,9.18986261 C7.44314597,9.48368229 7.56558499,9.73017011 7.74707674,9.92473512 C7.18578472,10.9423056 5.67525072,13.7248957 5.12990229,14.6702722 C4.88560637,15.0945455 5.0308127,15.6366312 5.45495104,15.8811792 C5.61419291,15.9724159 5.79041325,16.0100162 5.96107113,15.9976983 C6.24491879,15.9771684 6.51350201,15.8203978 6.66611419,15.5557402 C7.17420702,14.6751864 8.49940081,12.0027464 9.08064658,10.9982051 C9.5466328,11.7723592 10.3405784,13.1969708 11.3478058,15.4719395 C11.4942411,15.8034566 11.8187724,16 12.159409,16 C12.2798753,16 12.4012794,15.9757136 12.5182207,15.9238231 C12.9658055,15.7258634 13.1683505,15.2024324 12.9698156,14.7550428 C11.7820342,12.0703495 10.9074652,10.5800099 10.4229159,9.79512211 C10.614433,9.55477709 10.7297896,9.25601083 10.6996164,8.90541877 L10.4935463,6.53627125 C11.0904446,7.012726 11.8693197,7.41410929 13.1992028,7.55157862 C13.2239105,7.55422972 13.2478421,7.55542595 13.2720324,7.55542595 C13.624279,7.55542595 13.9271426,7.28895788 13.9641395,6.93076815 C14.0028827,6.54778092 13.7247269,6.20553013 13.3416926,6.16615156 Z M1.65200028,15.5857429 C1.51390873,15.5857429 1.40191551,15.4738147 1.40191551,15.3358604 C1.40191551,15.1979061 1.51390873,15.0859779 1.65200028,15.0859779 C1.78993013,15.0859779 1.90195569,15.1978738 1.90195569,15.3358604 C1.90189101,15.4739117 1.78996247,15.5857429 1.65200028,15.5857429 Z" id="Shape"></path>
                    </g>
                </g>
            </g>
        </g>
    </g>
</svg>